# xmcd
#
# Track frame offsets:
#	150
#	15815
#	25285
#	41015
#	54671
#	84221
#	93899
#	108257
#	123585
#	134688
#	148668
#	166335
#	201237
#	228062
#	247918
#
# Disc length: 3554 seconds
#
# Revision: 1
# Processed by: cddbd v1.5.1PL2 Copyright (c) Steve Scherf et al.
# Submitted via: EasyCDDAExtractor 5.0.6
#
DISCID=ba0de00f
DTITLE=Jorge Cardoso Eric Sobezyk - Duos pour guitare
DYEAR=2005
DGENRE=Latin
TTITLE0=Metro escapade 1 Trocadero - souvenir
TTITLE1=2 Republique - caribena
TTITLE2=3 Tuileries - nocturne
TTITLE3=4 Pigalle - barcarolle
TTITLE4=5 Saint Paul - ballade
TTITLE5=6 Place d'Italie - tarentelle
TTITLE6=Hommage à Fernando Sor 1 Allegro
TTITLE7=2 Adagio
TTITLE8=3 Menuet
TTITLE9=4 Presto
TTITLE10=Suite Portena 1 cancion
TTITLE11=2 Tango
TTITLE12=3 Vals
TTITLE13=4 Milonga portena
TTITLE14=Milonga
EXTD=
EXTT0=
EXTT1=
EXTT2=
EXTT3=
EXTT4=
EXTT5=
EXTT6=
EXTT7=
EXTT8=
EXTT9=
EXTT10=
EXTT11=
EXTT12=
EXTT13=
EXTT14=
PLAYORDER=
